<?xml version="1.0" encoding="UTF-8"?>
<svg width="387px" height="570px" viewBox="0 0 387 570" version="1.1" xmlns="http://www.w3.org/2000/svg" xmlns:xlink="http://www.w3.org/1999/xlink">
    <!-- Generator: Sketch 46.2 (44496) - http://www.bohemiancoding.com/sketch -->
    <title>Group 6</title>
    <desc>Created with Sketch.</desc>
    <defs></defs>
    <g id="Symbols" stroke="none" stroke-width="1" fill="none" fill-rule="evenodd">
        <g id="School">
            <g id="Group-6">
                <g id="Group-5" transform="translate(193.000000, 0.000000)">
                    <path d="M6,0 C25.2506012,3.11535764 36.9697519,9.22610727 41.1574521,18.3322489 C45.3451522,27.4383905 56.2926682,27.4383905 74,18.3322489 C63.4157029,37.3111876 53.6079711,46.5260481 44.5768046,45.9768304 C31.0300547,45.1530039 11.574013,35.3683066 6,38.5848852 C6,38.5848852 6,25.7232568 6,0 Z" id="Path-5" fill="#FF4C00"></path>
                    <rect id="Rectangle-2" fill="#FFFFFF" x="0" y="0" width="6" height="128"></rect>
                </g>
                <path d="" id="Path-4" stroke="#979797"></path>
                <rect id="Rectangle-5" fill="#FFFFFF" x="119" y="130" width="148" height="22"></rect>
                <rect id="Rectangle-5-Copy-2" fill="#FFFFFF" x="0" y="303" width="387" height="25"></rect>
                <rect id="Rectangle-5-Copy-3" fill="#FF4C00" x="0" y="346" width="387" height="224"></rect>
                <rect id="Rectangle-5-Copy" fill="#FF4C00" x="119" y="169" width="148" height="118"></rect>
                <path d="M201.5,401 L201.5,401 L201.5,401 C236.570082,401 265,429.429918 265,464.5 L265,570 L138,570 L138,464.5 L138,464.5 C138,429.429918 166.429918,401 201.5,401 Z" id="Rectangle-5-Copy-4" fill="#FFFFFF"></path>
            </g>
        </g>
    </g>
</svg>