<?xml version="1.0" encoding="UTF-8"?>
<svg width="177px" height="424px" viewBox="0 0 177 424" version="1.1" xmlns="http://www.w3.org/2000/svg" xmlns:xlink="http://www.w3.org/1999/xlink">
    <!-- Generator: Sketch 46.2 (44496) - http://www.bohemiancoding.com/sketch -->
    <title>Group 4</title>
    <desc>Created with Sketch.</desc>
    <defs></defs>
    <g id="Symbols" stroke="none" stroke-width="1" fill="none" fill-rule="evenodd">
        <g id="Knight">
            <g id="Group-4">
                <polygon id="Path-11" fill="#C3C3C3" points="76.3796434 189.24737 23.2453617 239.711348 5.37395312 342.565519 9.09494702e-13 424 177 398.472941 177 195.748343 99.9725506 168"></polygon>
                <g id="Group" transform="translate(7.000000, 0.000000)">
                    <rect id="Rectangle" fill="#B5B5B5" transform="translate(110.480966, 55.592275) rotate(-339.000000) translate(-110.480966, -55.592275) " x="96.9002394" y="45.9878792" width="27.1614528" height="19.2087912"></rect>
                    <polygon id="Path-7" fill="#FCECD0" points="12.6662143 124.771972 0.14466151 163.476698 15.927437 163.476698 21.5739797 227.541972 94.5521013 205.390748 75.8441413 115.537934"></polygon>
                    <path d="M3.47749892,126.562582 L70.6989014,126.562582 L89.1451924,219.029688 L146.414908,190.853749 C170.773083,116.325802 156.993682,70.9030743 105.076706,54.5855659 C53.1597297,38.2680575 19.2933273,62.2603963 3.47749892,126.562582 Z" id="Path-6" fill="#D8D8D8"></path>
                    <path d="M27.7183989,134.288615 L42.5981545,134.288615 C40.9784919,139.010243 38.4985326,141.371058 35.1582767,141.371058 C31.8180208,141.371058 29.3380615,139.010243 27.7183989,134.288615 Z" id="Path-9" fill="#433D3D"></path>
                    <polygon id="Path-10" fill="#FF4C00" points="104.381443 40.8953419 107.294523 0 115.266888 14.5673755 134.990789 3.14550857 133.307096 17.924027 155.257768 9.06124327 146.379029 22.2274648 162 21.4284041 125.25864 49.3089805"></polygon>
                </g>
            </g>
        </g>
    </g>
</svg>