<?xml version="1.0" encoding="UTF-8"?>
<svg width="97px" height="97px" viewBox="0 0 97 97" version="1.1" xmlns="http://www.w3.org/2000/svg" xmlns:xlink="http://www.w3.org/1999/xlink">
    <!-- Generator: Sketch 46.2 (44496) - http://www.bohemiancoding.com/sketch -->
    <title>Pacman/Grandma</title>
    <desc>Created with Sketch.</desc>
    <defs></defs>
    <g id="Symbols" stroke="none" stroke-width="1" fill="none" fill-rule="evenodd">
        <g id="Pacman/Grandma">
            <path d="M7,78.6912785 C13.087066,89.0117634 24.8128909,96 38.2791122,96 C58.0072138,96 74,81.0015391 74,62.5 C74,43.9984609 58.0072138,29 38.2791122,29 C26.8856479,29 16.7380409,34.0025068 10.1973801,41.7932283 L40.1144127,63.1069641 L7,78.6912785 Z" id="Combined-Shape" fill="#FFF36E"></path>
            <circle id="Oval-2-Copy-3" fill="#444444" cx="40.5" cy="49.5" r="3.5"></circle>
            <path d="M33.5114585,9.69155833 C30.8461633,8.21938262 27.6919751,7.36792453 24.3114754,7.36792453 C14.7506115,7.36792453 7,14.1786872 7,22.5801887 C7,29.3627344 12.0513517,35.1085384 19.0285503,37.0710988 C20.2128164,40.3760233 23.4227012,42.745283 27.1967213,42.745283 C31.0679745,42.745283 34.3456493,40.2523685 35.4523671,36.8138181 C37.8074004,37.88733 40.5281038,38.5 43.4262295,38.5 C44.3299405,38.5 45.2163998,38.4404267 46.0798996,38.3258837 C46.7237466,43.14753 49.7242974,47.2417708 53.9100588,49.4594676 C55.184002,53.5637255 58.001834,56.986177 61.6826902,59.0444309 C61.3016365,60.1640201 61.0983607,61.3414851 61.0983607,62.5566038 C61.0983607,69.9811865 68.6875011,76 78.0491803,76 C87.4108595,76 95,69.9811865 95,62.5566038 C95,57.1824936 91.0238604,52.5449009 85.2774155,50.3932339 C85.5352655,49.7096973 85.7494608,49.0046684 85.9165912,48.2815664 C90.5722662,44.5874377 93.557377,38.8847025 93.557377,32.4858491 C93.557377,21.348975 84.5149969,12.3207547 73.3606557,12.3207547 C69.3801302,12.3207547 65.6685593,13.4704827 62.5408982,15.4554767 C62.5131771,7.4673902 55.7420521,1 47.3934426,1 C41.1865411,1 35.8515793,4.57478961 33.5114585,9.69155833 Z" id="Combined-Shape" fill="#D8D8D8"></path>
        </g>
    </g>
</svg>