<?xml version="1.0" encoding="UTF-8"?>
<svg width="97px" height="97px" viewBox="0 0 97 97" version="1.1" xmlns="http://www.w3.org/2000/svg" xmlns:xlink="http://www.w3.org/1999/xlink">
    <!-- Generator: Sketch 46.2 (44496) - http://www.bohemiancoding.com/sketch -->
    <title>Pacman/Mother</title>
    <desc>Created with Sketch.</desc>
    <defs></defs>
    <g id="Symbols" stroke="none" stroke-width="1" fill="none" fill-rule="evenodd">
        <g id="Pacman/Mother">
            <g id="Group" transform="translate(7.000000, 7.000000)">
                <path d="M4.16777723e-13,65.4329394 C5.81451077,75.9074614 17.0152987,83 29.8785549,83 C48.7233087,83 64,67.7776815 64,49 C64,30.2223185 48.7233087,15 29.8785549,15 C18.9952458,15 9.30200923,20.0771711 3.05421384,27.984172 L31.6316778,49.6160232 L1.77635684e-15,65.4329394 Z" id="Combined-Shape-Copy" fill="#FFF36E"></path>
                <circle id="Oval-2-Copy-4" fill="#444444" cx="31.5" cy="36.5" r="3.5"></circle>
                <path d="M29.4521029,1.81323651 C17.9854211,4.35632431 8.16805346,10.7765509 0,21.0739164 L49.8000031,31.4838829 L51.5856512,23.4334193 L55.2856956,75.6947476 L83.4997309,83 C85.6825371,35.9351683 80.7222237,10.4211467 68.6187907,6.45793515 C50.4636413,0.513117872 46.6521255,-2.00139519 29.4521029,1.81323651 Z" id="Path-3" fill="#524E4E"></path>
            </g>
        </g>
    </g>
</svg>