<?xml version="1.0" encoding="UTF-8"?>
<svg width="172px" height="127px" viewBox="0 0 172 127" version="1.1" xmlns="http://www.w3.org/2000/svg" xmlns:xlink="http://www.w3.org/1999/xlink">
    <!-- Generator: Sketch 46.2 (44496) - http://www.bohemiancoding.com/sketch -->
    <title>Header/Logo</title>
    <desc>Created with Sketch.</desc>
    <defs></defs>
    <g id="Landing" stroke="none" stroke-width="1" fill="none" fill-rule="evenodd">
        <g id="Desktop-HD-Copy-6" transform="translate(-1238.000000, -28.000000)" fill="#FFFFFF">
            <g id="Header/Logo" transform="translate(1238.000000, 28.000000)">
                <g id="header-r-t">
                    <polygon id="Shape" fill-rule="nonzero" points="24 28 32.9759833 28 43.0240167 28 52 28 38.0730943 0"></polygon>
                    <polygon id="Shape" fill-rule="nonzero" points="14.4388778 20.6002928 25 0 0 0 0 6.72327965 11.1122244 6.72327965 0.0200400802 28 23.7274549 28 23.8777555 20.6002928"></polygon>
                    <path d="M151.895293,8.73589839 C151.972142,2.68434815 147.341979,1 142.3756,1 L133,1 L133,28 L140.684918,28 L140.684918,15.7355248 L146.448607,27.9899141 L153,27.9899141 L147.034582,15.3926037 C149.272815,14.6765035 151.856868,11.4490101 151.895293,8.73589839 Z M142.289145,10.5614494 C141.95293,10.5614494 141.587896,10.5614494 141.251681,10.5614494 L140.732949,10.5614494 L140.732949,7.47515876 L142.394813,7.47515876 C142.951969,7.47515876 144.834774,7.39447142 144.834774,8.7964139 C144.834774,10.1983564 143.115274,10.5009339 142.269933,10.5614494 L142.289145,10.5614494 Z" id="Shape" fill-rule="nonzero"></path>
                    <path d="M72.2841312,10.0134278 L67.064273,10.0134278 C66.2384752,9.74151436 66.0447695,8.37187617 67.2171986,8.37187617 L81.0110816,8.37187617 L81.0110816,1 L67.2171986,1 C61.6710993,1 59,4.56508765 59,8.9157031 C59,13.2663185 61.8342199,17.767997 67.2171986,17.767997 L72.3147163,17.767997 C73.3342199,17.767997 73.8439716,18.2010444 73.8439716,18.6340918 C73.8439716,19.2182022 73.2934397,19.8123834 72.233156,19.8526669 L59.1529255,19.8526669 L59.1529255,28 L72.3249113,28 C78.6968085,27.8791496 82,23.2163372 82,18.6340918 C82,14.0518463 80.5625,10.0134278 72.2841312,10.0134278 Z" id="Shape" fill-rule="nonzero"></path>
                    <polygon id="Shape" fill-rule="nonzero" points="96.3639091 10.6435717 90.6262323 10.6435717 90.6262323 1 82 1 82 28 90.6262323 28 90.6262323 18.366432 96.3639091 18.366432 96.3639091 28 105 28 105 1 96.3639091 1"></polygon>
                    <polygon id="Shape" fill-rule="nonzero" points="104 28 112.978154 28 123.021846 28 132 28 118.078929 1"></polygon>
                    <polygon id="Shape" fill-rule="nonzero" points="162.511403 18.3614413 171.932155 18.3614413 171.932155 10.6385587 162.511403 10.6385587 162.511403 8.75297177 171.932155 8.75297177 171.932155 1.04011887 155 1 155 28 172 28 172 20.3673848 162.511403 20.3673848"></polygon>
                    <path d="M165.200221,36.0099558 C164.99047,37.433294 164.657357,38.8356992 164.204646,40.2013274 L165.200221,40.2013274 C165.699294,38.8734207 166.066115,37.4995074 166.295354,36.0995575 L171.27323,36.159292 C170.830752,37.5362541 170.31565,38.8888126 169.730088,40.2112832 L171.980088,40.2112832 L171.980088,44.6814159 L169.988938,44.6814159 L169.988938,46.5829646 L172,46.5829646 L172,50.6548673 L169.919248,50.6548673 L169.919248,52.3473451 L172,52.3473451 L172,56.329646 L169.919248,56.329646 L169.919248,58.1515487 L171.910398,58.1515487 L171.910398,62.9303097 L159.246681,62.9303097 L159.246681,56.9568584 L157.066372,61.5265487 C156.072611,60.7815081 155.2168,59.868418 154.537611,58.8285398 L154.537611,62.960177 L149.818584,62.960177 L149.818584,59.3661504 C148.627798,60.8932013 147.110719,62.1347567 145.378319,63 L145.378319,57.0265487 C146.476113,56.198483 147.507973,55.2864515 148.464602,54.2986726 L145.477876,54.2986726 L145.477876,49.8384956 L147.668142,49.8384956 L145,46.3539823 C146.117996,45.0625754 146.849486,43.482281 147.110619,41.7942478 L145.507743,41.7942478 L145.507743,37.2942478 L149.868363,37.2942478 L149.868363,36 L154.846239,36 L154.846239,37.2942478 L158.639381,37.2942478 L158.639381,41.4856195 C159.423797,39.7396392 159.96319,37.8936416 160.242257,36 L165.200221,36.0099558 Z M150.644912,48.8230088 C150.207649,48.1854236 149.811918,47.5203293 149.460177,46.8318584 C149.072748,47.9348066 148.47042,48.9499655 147.688053,49.8185841 L149.82854,49.8185841 L149.82854,48.8230088 L150.644912,48.8230088 Z M151.49115,47.6382743 L150.674779,48.8230088 L153.173673,48.8230088 L151.49115,47.6382743 Z M150.903761,41.7942478 C150.870306,42.0902542 150.813717,42.3831855 150.734513,42.670354 C151.146241,43.4401871 151.647505,44.1586652 152.227876,44.8108407 C152.60254,43.850357 152.85669,42.8471317 152.984513,41.824115 L150.903761,41.7942478 Z M157.335177,49.659292 C156.569274,48.8584567 155.925225,47.9494075 155.423673,46.9612832 C155.165585,47.5909317 154.866263,48.2028784 154.527655,48.7931416 L154.527655,48.7931416 L154.527655,49.7887168 L158.579646,49.7887168 L158.579646,54.2887168 L155.59292,54.2887168 C156.625245,55.4001418 157.866927,56.2967237 159.246681,56.9269912 L159.246681,49.659292 L159.077434,49.8285398 L158.181416,48.0265487 L157.335177,49.659292 Z M156.608407,41.7643805 C156.608407,41.9634956 156.548673,42.2721239 156.528761,42.4712389 C156.791612,42.951592 157.091175,43.410923 157.424779,43.8451327 C157.80865,43.1776555 158.141459,42.4820854 158.420354,41.7643805 L156.608407,41.7643805 Z M163.975664,44.6017699 L163.975664,46.5033186 L165.518805,46.5033186 L165.518805,44.6814159 L163.975664,44.6017699 Z M163.975664,50.5752212 L163.975664,52.3473451 L165.518805,52.3473451 L165.518805,50.6548673 L163.975664,50.5752212 Z M163.975664,56.329646 L163.975664,58.1515487 L165.518805,58.1515487 L165.518805,56.3595133 L163.975664,56.329646 Z" id="Shape" fill-rule="nonzero"></path>
                    <path d="M167.853072,85.3108096 L172,85.3108096 L172,79.6793311 L170.391192,79.6793311 L170.391192,70.0546223 L163.226499,70.0546223 L163.226499,73.2287284 L165.734641,73.2287284 L165.734641,73.9249839 L163.226499,73.9249839 L163.226499,76.1468582 L165.734641,76.1468582 L165.734641,76.8431137 L163.226499,76.8431137 L163.226499,78.9830755 L165.734641,78.9830755 L165.734641,79.7100482 L161.138046,79.7100482 L162.746854,77.7441503 L161.447816,76.904548 C162.127313,76.3311611 162.447076,76.0649458 162.856773,75.6349056 L161.30792,74.6110004 L162.996669,72.8806006 C162.556585,72.5124419 162.096162,72.1705736 161.617691,71.8566955 C162.071207,71.495881 162.504883,71.1096192 162.916728,70.6996826 L160.628423,69.0819124 C160.118459,69.5601146 159.550946,69.9695801 158.939674,70.3003596 C157.982329,69.8166376 157.001812,69.3826345 156.00185,69 L154.063286,70.976137 C154.602887,71.2116352 154.942635,71.3549819 155.73205,71.7235878 C154.882679,72.0102812 154.353072,72.153628 153.873427,72.2764966 L152.494449,69.0409562 C150.509874,69.6062411 148.458775,69.888763 146.398964,69.8805585 L146.398964,79.6793311 L145.089933,79.6793311 L145.089933,85.3108096 L148.937084,85.3108096 L148.937084,87.1333608 L158.589933,87.1333608 C158.030348,87.4200543 155.772021,88.2289394 155.772021,88.2289394 L145,88.2289394 L145,92.5600583 L155.801999,92.5600583 C155.801999,93.2563138 155.801999,93.3177481 155.212435,93.3177481 L152.214656,93.3177481 L152.214656,96.9935677 L158.789785,96.9935677 C159.436849,97.0449281 160.070694,96.7866135 160.506578,96.2939131 C160.942462,95.8012128 161.131331,95.1295763 161.018135,94.474761 L161.018135,92.5395802 L171.820133,92.5395802 L171.820133,88.2084612 L164.255736,88.2084612 C165.491266,87.9693064 166.699907,87.6022312 167.863064,87.1128827 L167.853072,85.3108096 Z M158.859734,73.5768562 C159.569208,74.0683307 159.858993,74.2731117 160.188749,74.529088 C159.759515,74.8654897 159.305115,75.1667648 158.829756,75.4301246 C157.670614,74.8567377 157.250925,74.6826738 156.911177,74.5086099 C157.860474,74.0990478 158.46003,73.7816372 158.909697,73.546139 L158.859734,73.5768562 Z M158.689859,78.6042306 C158.939674,78.7782945 159.279423,78.9830755 160.298668,79.7305263 L156.151739,79.7305263 C157.033904,79.3961648 157.89785,79.0133522 158.739822,78.5837525 L158.689859,78.6042306 Z M151.185418,76.1775753 L153.723538,76.1775753 L153.723538,73.9249839 L151.185418,73.9249839 L151.185418,73.2287284 C152.068785,73.163447 152.946816,73.0368751 153.813472,72.8498835 L154.912657,74.9591282 L154.063286,75.9830334 L155.612139,76.7304841 C155.132494,76.8738309 154.612879,77.0478947 153.723538,77.2526758 L153.723538,76.8226356 L151.185418,76.8226356 L151.185418,76.1775753 Z M151.185418,79.0137927 L153.723538,79.0137927 L153.723538,77.9898875 L154.622872,79.7510044 L151.185418,79.7510044 L151.185418,79.0137927 Z M166.174315,83.8978204 L150.665803,83.8978204 L150.665803,82.9763058 L166.214286,82.9763058 L166.174315,83.8978204 Z" id="Shape" fill-rule="nonzero"></path>
                    <path d="M152.908582,121.77251 C155.216154,121.365811 157.427709,120.517412 159.426866,119.271959 C158.366275,117.493765 157.453023,115.628153 156.696642,113.694598 L156.293657,113.951856 L153.64403,109.619625 C155.235734,108.598082 156.674495,107.346872 157.915672,105.904814 L154.762313,105.904814 L154.762313,108.436237 L152.515672,108.436237 L152.515672,110.247336 C153.502983,111.884299 154.687622,113.38816 156.041791,114.723631 L153.966418,119.580669 C153.451108,118.968429 152.96689,118.329588 152.515672,117.666667 L152.515672,126.927968 L147.820896,126.927968 L147.820896,117.975377 C147.10444,119.863165 146.192547,121.667355 145.100746,123.357222 L145.100746,115.124954 C146.530645,113.192434 147.343214,110.85703 147.427985,108.436237 L145,108.436237 L145,103.527747 L147.790672,103.527747 L147.790672,99 L152.485448,99 L152.485448,103.527747 L154.651493,103.527747 L154.651493,101.088938 L160.595522,101.088938 L160.595522,99.030871 L165.884701,99.030871 L165.884701,101.088938 L171.929478,101.088938 L171.929478,105.915105 L168.625,105.915105 C169.56782,107.134723 170.709562,108.17907 172,109.002205 L172,115.176406 C171.627239,114.939728 169.702985,114.013598 169.441045,113.859243 C168.862418,115.828546 167.948431,117.678242 166.741045,119.323411 C168.33975,120.386813 170.109888,121.153227 171.969776,121.587284 L171.969776,127 C168.020522,125.662257 163.910075,124.149577 162.902612,123.336641 C160.196468,125.175608 157.14712,126.422864 153.946269,127 L152.908582,121.77251 Z M168.101119,112.737596 C166.505863,111.358478 165.099584,109.766336 163.920149,108.004043 L167.617537,105.945976 L163.809328,105.945976 C162.140969,108.47946 160.171463,110.791849 157.945896,112.830209 L161.159701,111.461595 C161.72632,112.895803 162.421045,114.273666 163.235075,115.577729 C163.963074,114.348653 164.480918,113.001964 164.766418,111.595369 L168.101119,112.737596 Z" id="Shape" fill-rule="nonzero"></path>
                </g>
            </g>
        </g>
    </g>
</svg>