<?xml version="1.0" encoding="UTF-8"?>
<svg width="113px" height="111px" viewBox="0 0 113 111" version="1.1" xmlns="http://www.w3.org/2000/svg" xmlns:xlink="http://www.w3.org/1999/xlink">
    <!-- Generator: Sketch 46.2 (44496) - http://www.bohemiancoding.com/sketch -->
    <title>Graduate/Level2</title>
    <desc>Created with Sketch.</desc>
    <defs>
        <polygon id="path-1" points="52.5 86.5835921 46.0106431 90 47.25 82.763932 42 77.6393202 49.2553216 76.5835921 52.5 70 55.7446784 76.5835921 63 77.6393202 57.75 82.763932 58.9893569 90"></polygon>
    </defs>
    <g id="Symbols" stroke="none" stroke-width="1" fill="none" fill-rule="evenodd">
        <g id="Graduate/Level2">
            <path d="M37.6419385,11.6181998 L41.3282472,51.7301653 L22,93.0391843 C28.1073248,104.834703 38.8761656,107.905842 54.3065223,102.252602 C54.8203638,103.465147 55.7111902,88.7333091 56.9790017,58.0570887 C67.1878224,32.4613321 72.8614885,19.0910956 74,17.9463792 C65.3503354,4.52045612 53.2309816,2.41106297 37.6419385,11.6181998 Z" id="Path-9" stroke="#A39E9E" stroke-width="2" fill="#FFFFFF"></path>
            <polygon id="Path-10" fill="#FF4C00" points="38.7478826 45 36 56.3886038 60.3936175 64 63 50.3942019"></polygon>
            <g id="Star">
                <use fill="#8AE872" fill-rule="evenodd" xlink:href="#path-1"></use>
                <path stroke="#FFFFFF" stroke-width="5" d="M52.5,89.4088837 L42.6910063,94.5729583 L44.5642506,83.6358962 L36.6328908,75.8939648 L47.5941462,74.2989831 L52.5,64.3447947 L57.4058538,74.2989831 L68.3671092,75.8939648 L60.4357494,83.6358962 L62.3089937,94.5729583 L52.5,89.4088837 Z"></path>
            </g>
        </g>
    </g>
</svg>