<?xml version="1.0" encoding="UTF-8"?>
<svg width="1299px" height="246px" viewBox="0 0 1299 246" version="1.1" xmlns="http://www.w3.org/2000/svg" xmlns:xlink="http://www.w3.org/1999/xlink">
    <!-- Generator: Sketch 46.2 (44496) - http://www.bohemiancoding.com/sketch -->
    <title>UI/Dialog</title>
    <desc>Created with Sketch.</desc>
    <defs></defs>
    <g id="Symbols" stroke="none" stroke-width="1" fill="none" fill-rule="evenodd">
        <g id="UI/Dialog">
            <polygon id="Rectangle-2" fill="#FFFFFF" points="-1.52414782e-15 1 1298 1 1298 251 -5.80482583e-14 251"></polygon>
            <text id="哇，今天是小學開學的日子，媽媽爸爸說我即" font-family="NotoSansCJKtc-Medium, Noto Sans CJK TC" font-size="38" font-weight="400" fill="#4A4A4A">
                <tspan x="283" y="73">哇，今天是小學開學的日子，媽媽爸爸說我即將進入中華</tspan>
                <tspan x="283" y="129">民國的教育迷宮，好興奮&gt;&lt;。</tspan>
                <tspan x="283" y="185"></tspan>
            </text>
            <polygon id="Path-4" fill="#FF4C00" points="1220 181 1220 213 1249 197"></polygon>
            <g id="Pacman/Normal" transform="translate(143.000000, 125.500000) rotate(-360.000000) translate(-143.000000, -125.500000) translate(83.000000, 62.000000)">
                <path d="M7.42268041,94.1909309 C17.6470612,113.753641 37.3428061,127 59.9618765,127 C93.0989615,127 119.961877,98.5700816 119.961877,63.5 C119.961877,28.4299184 93.0989615,0 59.9618765,0 C40.8243943,0 23.7795654,9.48236369 12.7932862,24.2498507 L63.0446116,64.650514 L7.42268041,94.1909309 Z" id="Combined-Shape" fill="#FFF36E"></path>
                <ellipse id="Oval-2-Copy-3" fill="#444444" cx="63.0927835" cy="40.5876289" rx="6.18556701" ry="6.54639175"></ellipse>
            </g>
        </g>
    </g>
</svg>