<?xml version="1.0" encoding="UTF-8"?>
<svg width="60px" height="60px" viewBox="0 0 60 60" version="1.1" xmlns="http://www.w3.org/2000/svg" xmlns:xlink="http://www.w3.org/1999/xlink">
    <!-- Generator: Sketch 46.2 (44496) - http://www.bohemiancoding.com/sketch -->
    <title>GamePad/Button/B</title>
    <desc>Created with Sketch.</desc>
    <defs></defs>
    <g id="Symbols" stroke="none" stroke-width="1" fill="none" fill-rule="evenodd">
        <g id="GamePad/Button/B">
            <circle id="Oval-3-Copy" fill="#FF4C00" cx="30" cy="30" r="30"></circle>
            <path d="M20.977,44 L20.977,13.824 L30.325,13.824 C36.516,13.824 40.985,15.792 40.985,21.245 C40.985,24.115 39.386,26.862 36.68,27.764 L36.68,27.969 C40.124,28.707 42.625,31.044 42.625,35.144 C42.625,41.13 37.746,44 31.063,44 L20.977,44 Z M25.733,26.411 L29.792,26.411 C34.384,26.411 36.311,24.689 36.311,21.86 C36.311,18.703 34.179,17.514 29.915,17.514 L25.733,17.514 L25.733,26.411 Z M25.733,40.269 L30.53,40.269 C35.245,40.269 37.951,38.588 37.951,34.898 C37.951,31.495 35.327,30.019 30.53,30.019 L25.733,30.019 L25.733,40.269 Z" id="B" fill="#FFFFFF"></path>
        </g>
    </g>
</svg>